<?xml version="1.0" encoding="utf-8"?>
<!-- Generator: Adobe Illustrator 17.1.0, SVG Export Plug-In . SVG Version: 6.00 Build 0)  -->
<!DOCTYPE svg PUBLIC "-//W3C//DTD SVG 1.1//EN" "http://www.w3.org/Graphics/SVG/1.1/DTD/svg11.dtd">
<svg version="1.1" id="Capa_1" xmlns="http://www.w3.org/2000/svg" xmlns:xlink="http://www.w3.org/1999/xlink" x="0px" y="0px"
	 viewBox="0 0 512 573.5" enable-background="new 0 0 512 573.5" xml:space="preserve">
<g>
	<path fill="#FFFFFF" d="M30,122.8c-8,0-13,0.7-15,2s-2.3,2.8-1,4.5c1.3,1.7,4.7,4.5,10,8.5c2.7,2,4.7,3.7,6,5l226,172l226-171l5-5
		c5.3-4,8.8-6.8,10.5-8.5s1.5-3.3-0.5-5s-7-2.5-15-2.5H241H30z"/>
	<path fill="#FFFFFF" d="M0,162.8v254c0,7.3,3,14.8,9,22.5s12,11.5,18,11.5h458c6,0,12-3.8,18-11.5s9-15.2,9-22.5v-254l-256,196
		L0,162.8z"/>
</g>
</svg>
