<?xml version="1.0" encoding="UTF-8"?>
<svg width="182pt" version="1.1" xmlns="http://www.w3.org/2000/svg" height="182pt" viewBox="0 0 182 182" xmlns:xlink="http://www.w3.org/1999/xlink">
 <defs/>
 <g id="Background">
  <path style="fill:#FFFFFF; fill-rule:nonzero;stroke:none;" id=" path5" d="M171.505 16.4989 C165.196 19.2978 158.414 21.1887 151.297 22.0393 C158.561 17.6848 164.141 10.7894 166.768 2.57259 C159.968 6.60554 152.438 9.53314 144.423 11.111 C138.005 4.27221 128.861 0 118.74 0 C99.3084 0 83.553 15.7536 83.553 35.1852 C83.553 37.9431 83.8643 40.6288 84.4646 43.204 C55.2211 41.7368 29.2946 27.7282 11.9399 6.44004 C8.91115 11.6367 7.17551 17.6805 7.17551 24.1291 C7.17551 36.3369 13.3875 47.1066 22.8288 53.4163 C17.0611 53.2337 11.6355 51.6507 6.89167 49.0155 C6.88767 49.1621 6.88767 49.3096 6.88767 49.458 C6.88767 66.5056 19.0166 80.726 35.1132 83.9606 C32.1608 84.765 29.0522 85.1946 25.8433 85.1946 C23.576 85.1946 21.3722 84.9733 19.2232 84.5634 C23.7012 98.542 36.6954 108.715 52.0931 108.998 C40.0509 118.436 24.8795 124.061 8.39349 124.061 C5.55335 124.061 2.75267 123.894 0 123.569 C15.5719 133.553 34.067 139.378 53.9377 139.378 C118.658 139.378 154.051 85.7631 154.051 39.2645 C154.051 37.739 154.016 36.222 153.949 34.7119 C160.823 29.752 166.788 23.5554 171.505 16.4989 L171.505 16.4989 Z" transform="translate(6, 22)"/>
 </g>
</svg>
